<svg xmlns="http://www.w3.org/2000/svg" width="24" height="24" viewBox="0 0 24 24"><defs><style>.a{fill:#fff;}</style></defs><path class="a" d="M22.005,14.124l1.97-9.75A1.1,1.1,0,0,0,23,3H6.634L6.252.9a1.037,1.037,0,0,0-.98-.9H1A1.068,1.068,0,0,0,0,1.125v.75A1.068,1.068,0,0,0,1,3H3.912L6.839,19.1a2.7,2.7,0,0,0-1.172,2.276A2.492,2.492,0,0,0,8,24a2.492,2.492,0,0,0,2.333-2.625,2.786,2.786,0,0,0-.7-1.875h8.735a2.786,2.786,0,0,0-.7,1.875A2.492,2.492,0,0,0,20,24a2.492,2.492,0,0,0,2.333-2.625,2.669,2.669,0,0,0-1.316-2.363l.23-1.138a1.1,1.1,0,0,0-.975-1.374H9.088L8.816,15H21.03A1.033,1.033,0,0,0,22.005,14.124Z"/></svg>