<svg id="Icon_awesome-pinterest-p" data-name="Icon awesome-pinterest-p" xmlns="http://www.w3.org/2000/svg" width="24" height="24" viewBox="0 0 24 24">
  <path id="Icon_awesome-pinterest-p-2" data-name="Icon awesome-pinterest-p" d="M12.75.457C6.337.457,0,3.746,0,9.069c0,3.385,2.475,5.309,3.975,5.309.619,0,.975-1.327.975-1.7,0-.447-1.481-1.4-1.481-3.26,0-3.866,3.825-6.607,8.775-6.607,4.256,0,7.406,1.861,7.406,5.28,0,2.553-1.331,7.343-5.644,7.343-1.556,0-2.887-.866-2.887-2.106,0-1.818,1.65-3.578,1.65-5.453,0-3.183-5.869-2.606-5.869,1.241a4.536,4.536,0,0,0,.6,2.438c-.862,2.856-2.625,7.112-2.625,10.055a22.166,22.166,0,0,0,.281,2.712c.213.183.106.163.431.072,3.15-3.318,3.037-3.967,4.463-8.309.769,1.125,2.756,1.731,4.331,1.731A9.16,9.16,0,0,0,24,8.348C24,3.573,18.637.457,12.75.457Z" transform="translate(0 -0.457)" fill="#fff"/>
</svg>
