<svg id="Icon_awesome-twitter" data-name="Icon awesome-twitter" xmlns="http://www.w3.org/2000/svg" width="24" height="24" viewBox="0 0 24 24">
  <path id="Icon_awesome-twitter-2" data-name="Icon awesome-twitter" d="M21.533,9.362c.015.262.015.525.015.788,0,8.006-4.949,17.231-13.995,17.231A12.086,12.086,0,0,1,0,24.662a8.284,8.284,0,0,0,1.188.075A8.754,8.754,0,0,0,7.294,22.15c-2.162-.056-3.975-1.8-4.6-4.2a5.068,5.068,0,0,0,.929.094,4.288,4.288,0,0,0,1.294-.206c-2.254-.563-3.944-3-3.944-5.944v-.075a4.278,4.278,0,0,0,2.223.769A6.516,6.516,0,0,1,1.005,7.543a7.1,7.1,0,0,1,.67-3.056,13.335,13.335,0,0,0,10.142,6.338A8.361,8.361,0,0,1,11.7,9.437c0-3.338,2.193-6.056,4.919-6.056a4.536,4.536,0,0,1,3.594,1.912A8.669,8.669,0,0,0,23.33,3.831a5.979,5.979,0,0,1-2.162,3.337A8.45,8.45,0,0,0,24,6.231a12.222,12.222,0,0,1-2.467,3.131Z" transform="translate(0 -3.381)" fill="#fff"/>
</svg>
